G04 (created by PCBNEW (2013-07-07 BZR 4022)-stable) date 03/12/2015 19:04:02*
%MOIN*%
G04 Gerber Fmt 3.4, Leading zero omitted, Abs format*
%FSLAX34Y34*%
G01*
G70*
G90*
G04 APERTURE LIST*
%ADD10C,0.00590551*%
%ADD11C,0.019685*%
%ADD12C,0.0001*%
%ADD13R,0.06X0.06*%
%ADD14C,0.06*%
%ADD15C,0.0413386*%
%ADD16C,0.0472441*%
%ADD17C,0.055*%
G04 APERTURE END LIST*
G54D10*
G54D11*
X54648Y-29252D02*
X54976Y-29252D01*
X54976Y-29768D02*
X54976Y-28784D01*
X54507Y-28784D01*
X53710Y-29112D02*
X53710Y-29768D01*
X54132Y-29112D02*
X54132Y-29627D01*
X54085Y-29721D01*
X53992Y-29768D01*
X53851Y-29768D01*
X53757Y-29721D01*
X53710Y-29674D01*
X53101Y-29768D02*
X53195Y-29721D01*
X53242Y-29627D01*
X53242Y-28784D01*
X52586Y-29768D02*
X52679Y-29721D01*
X52726Y-29627D01*
X52726Y-28784D01*
X50898Y-29674D02*
X50945Y-29721D01*
X51086Y-29768D01*
X51179Y-29768D01*
X51320Y-29721D01*
X51414Y-29627D01*
X51461Y-29534D01*
X51508Y-29346D01*
X51508Y-29205D01*
X51461Y-29018D01*
X51414Y-28924D01*
X51320Y-28831D01*
X51179Y-28784D01*
X51086Y-28784D01*
X50945Y-28831D01*
X50898Y-28877D01*
X50476Y-29768D02*
X50476Y-28784D01*
X50055Y-29768D02*
X50055Y-29252D01*
X50101Y-29159D01*
X50195Y-29112D01*
X50336Y-29112D01*
X50430Y-29159D01*
X50476Y-29205D01*
X49164Y-29768D02*
X49164Y-29252D01*
X49211Y-29159D01*
X49305Y-29112D01*
X49492Y-29112D01*
X49586Y-29159D01*
X49164Y-29721D02*
X49258Y-29768D01*
X49492Y-29768D01*
X49586Y-29721D01*
X49633Y-29627D01*
X49633Y-29534D01*
X49586Y-29440D01*
X49492Y-29393D01*
X49258Y-29393D01*
X49164Y-29346D01*
X48695Y-29768D02*
X48695Y-29112D01*
X48695Y-29299D02*
X48648Y-29205D01*
X48602Y-29159D01*
X48508Y-29112D01*
X48414Y-29112D01*
X47664Y-29112D02*
X47664Y-29908D01*
X47711Y-30002D01*
X47758Y-30049D01*
X47852Y-30096D01*
X47992Y-30096D01*
X48086Y-30049D01*
X47664Y-29721D02*
X47758Y-29768D01*
X47945Y-29768D01*
X48039Y-29721D01*
X48086Y-29674D01*
X48133Y-29580D01*
X48133Y-29299D01*
X48086Y-29205D01*
X48039Y-29159D01*
X47945Y-29112D01*
X47758Y-29112D01*
X47664Y-29159D01*
X46821Y-29721D02*
X46914Y-29768D01*
X47102Y-29768D01*
X47196Y-29721D01*
X47242Y-29627D01*
X47242Y-29252D01*
X47196Y-29159D01*
X47102Y-29112D01*
X46914Y-29112D01*
X46821Y-29159D01*
X46774Y-29252D01*
X46774Y-29346D01*
X47242Y-29440D01*
X45649Y-29487D02*
X45180Y-29487D01*
X45743Y-29768D02*
X45415Y-28784D01*
X45086Y-29768D01*
X44758Y-29768D02*
X44758Y-28784D01*
X44337Y-29768D02*
X44337Y-29252D01*
X44383Y-29159D01*
X44477Y-29112D01*
X44618Y-29112D01*
X44711Y-29159D01*
X44758Y-29205D01*
X43493Y-29721D02*
X43587Y-29768D01*
X43774Y-29768D01*
X43868Y-29721D01*
X43915Y-29627D01*
X43915Y-29252D01*
X43868Y-29159D01*
X43774Y-29112D01*
X43587Y-29112D01*
X43493Y-29159D01*
X43446Y-29252D01*
X43446Y-29346D01*
X43915Y-29440D01*
X42602Y-29768D02*
X42602Y-29252D01*
X42649Y-29159D01*
X42743Y-29112D01*
X42930Y-29112D01*
X43024Y-29159D01*
X42602Y-29721D02*
X42696Y-29768D01*
X42930Y-29768D01*
X43024Y-29721D01*
X43071Y-29627D01*
X43071Y-29534D01*
X43024Y-29440D01*
X42930Y-29393D01*
X42696Y-29393D01*
X42602Y-29346D01*
X41712Y-29768D02*
X41712Y-28784D01*
X41712Y-29721D02*
X41806Y-29768D01*
X41993Y-29768D01*
X42087Y-29721D01*
X42134Y-29674D01*
X42181Y-29580D01*
X42181Y-29299D01*
X42134Y-29205D01*
X42087Y-29159D01*
X41993Y-29112D01*
X41806Y-29112D01*
X41712Y-29159D01*
X41243Y-29674D02*
X41196Y-29721D01*
X41243Y-29768D01*
X41290Y-29721D01*
X41243Y-29674D01*
X41243Y-29768D01*
X41243Y-29393D02*
X41290Y-28831D01*
X41243Y-28784D01*
X41196Y-28831D01*
X41243Y-29393D01*
X41243Y-28784D01*
G54D12*
G36*
X50190Y-28027D02*
X50073Y-28027D01*
X49957Y-28027D01*
X49957Y-28239D01*
X49950Y-28376D01*
X49928Y-28469D01*
X49887Y-28539D01*
X49818Y-28627D01*
X49758Y-28627D01*
X49758Y-27126D01*
X48366Y-27134D01*
X46973Y-27143D01*
X46964Y-27755D01*
X46962Y-28006D01*
X46965Y-28194D01*
X46972Y-28323D01*
X46985Y-28397D01*
X46993Y-28414D01*
X47013Y-28426D01*
X47053Y-28435D01*
X47121Y-28443D01*
X47221Y-28448D01*
X47359Y-28452D01*
X47542Y-28454D01*
X47774Y-28454D01*
X48062Y-28454D01*
X48386Y-28452D01*
X49740Y-28443D01*
X49749Y-27784D01*
X49758Y-27126D01*
X49758Y-28627D01*
X48373Y-28627D01*
X46928Y-28627D01*
X46859Y-28539D01*
X46835Y-28505D01*
X46818Y-28465D01*
X46805Y-28409D01*
X46797Y-28328D01*
X46793Y-28211D01*
X46790Y-28049D01*
X46790Y-27832D01*
X46790Y-27787D01*
X46790Y-27561D01*
X46791Y-27392D01*
X46795Y-27270D01*
X46802Y-27186D01*
X46813Y-27130D01*
X46829Y-27092D01*
X46852Y-27062D01*
X46872Y-27042D01*
X46953Y-26960D01*
X48368Y-26960D01*
X48731Y-26960D01*
X49034Y-26960D01*
X49281Y-26961D01*
X49479Y-26966D01*
X49632Y-26975D01*
X49747Y-26990D01*
X49829Y-27011D01*
X49885Y-27040D01*
X49918Y-27079D01*
X49936Y-27129D01*
X49944Y-27191D01*
X49948Y-27266D01*
X49951Y-27322D01*
X49964Y-27560D01*
X50077Y-27560D01*
X50190Y-27560D01*
X50190Y-27793D01*
X50190Y-28027D01*
X50190Y-28027D01*
X50190Y-28027D01*
G37*
G36*
X48490Y-28293D02*
X47815Y-28293D01*
X47140Y-28293D01*
X47150Y-27793D01*
X47160Y-27293D01*
X47825Y-27293D01*
X48490Y-27293D01*
X48490Y-27793D01*
X48490Y-28293D01*
X48490Y-28293D01*
X48490Y-28293D01*
G37*
%LPC*%
G54D13*
X49400Y-33550D03*
G54D14*
X48400Y-33550D03*
G54D15*
X44129Y-28425D03*
X42220Y-28425D03*
G54D16*
X42102Y-27312D03*
X44247Y-27312D03*
G54D17*
X51390Y-31750D03*
X49269Y-29629D03*
M02*
