M48
;DRILL file {Pcbnew (2013-07-07 BZR 4022)-stable} date 03/12/2015 19:04:09
;FORMAT={2:4/ absolute / inch / keep zeros}
FMAT,2
INCH,TZ
T1C0.013
T2C0.028
T3C0.032
T4C0.040
%
G90
G05
M72
T1
X040750Y-029250
X040750Y-030000
X040750Y-030750
X041100Y-029700
X041100Y-030400
X041250Y-031000
X042000Y-031000
X042750Y-031000
X043500Y-031000
X044250Y-030500
X044250Y-031000
X045000Y-030500
X045000Y-031000
X045500Y-026750
X045500Y-027500
X045500Y-028250
X045500Y-029000
X045750Y-030500
X045750Y-031000
X046000Y-033500
X046000Y-034250
X046250Y-026750
X046250Y-027500
X046250Y-028250
X046250Y-029000
X046250Y-029750
X046250Y-032750
X046500Y-030500
X046500Y-031000
X046750Y-033500
X046750Y-034250
X047000Y-026750
X047000Y-027500
X047000Y-028250
X047000Y-029000
X047000Y-029750
X047000Y-032250
X047000Y-032750
X047250Y-030500
X047500Y-033500
X047500Y-034250
X047750Y-026750
X047750Y-027500
X047750Y-028250
X047750Y-029000
X047750Y-029750
X047750Y-032250
X047750Y-032750
X048250Y-030250
X048250Y-031000
X048250Y-031750
X048250Y-034250
X048500Y-026750
X048500Y-027500
X048500Y-028250
X048500Y-029000
X048500Y-029750
X049000Y-034250
X049250Y-026750
X049250Y-027500
X049250Y-028250
X049250Y-029000
X049500Y-030750
X049750Y-032250
X049750Y-032750
X049750Y-034250
X050000Y-026750
X050000Y-027500
X050000Y-028250
X050000Y-029000
X050000Y-029750
X050250Y-030750
X050500Y-033750
X050500Y-034250
X050750Y-027500
X050750Y-028250
X051250Y-030750
X052250Y-027750
X052250Y-028500
X052250Y-030000
X052250Y-030750
X053250Y-026750
X053250Y-027750
X053250Y-028500
X053250Y-029250
X053250Y-030000
X053250Y-030750
X054250Y-026750
X054250Y-027750
X054250Y-028500
X054250Y-029250
X054250Y-030000
X054250Y-030750
X055250Y-026750
X055250Y-027750
X055250Y-028500
X055250Y-029250
X055250Y-030000
X055250Y-030750
T2
X051273Y-026700
X052060Y-026700
T3
X049269Y-029629
X051391Y-031751
T4
X048400Y-033550
X049400Y-033550
T0
M30
