M48
INCH,TZ
T10C0.013
T11C0.028
T12C0.032
T13C0.040
T14C0.041
T15C0.047
%
T10
X040750Y-29250
X040750Y-30000
X040750Y-30750
X041100Y-29700
X041100Y-30400
X041250Y-31000
X042000Y-31000
X042750Y-31000
X043500Y-31000
X044250Y-30500
X044250Y-31000
X045000Y-30500
X045000Y-31000
X045500Y-26750
X045500Y-27500
X045500Y-28250
X045500Y-29000
X045750Y-30500
X045750Y-31000
X046000Y-33500
X046000Y-34250
X046250Y-26750
X046250Y-27500
X046250Y-28250
X046250Y-29000
X046250Y-29750
X046250Y-32750
X046500Y-30500
X046500Y-31000
X046750Y-33500
X046750Y-34250
X047000Y-26750
X047000Y-27500
X047000Y-28250
X047000Y-29000
X047000Y-29750
X047000Y-32250
X047000Y-32750
X047250Y-30500
X047500Y-33500
X047500Y-34250
X047750Y-26750
X047750Y-27500
X047750Y-28250
X047750Y-29000
X047750Y-29750
X047750Y-32250
X047750Y-32750
X048250Y-30250
X048250Y-31000
X048250Y-31750
X048250Y-34250
X048500Y-26750
X048500Y-27500
X048500Y-28250
X048500Y-29000
X048500Y-29750
X049000Y-34250
X049250Y-26750
X049250Y-27500
X049250Y-28250
X049250Y-29000
X049500Y-30750
X049750Y-32250
X049750Y-32750
X049750Y-34250
X050000Y-26750
X050000Y-27500
X050000Y-28250
X050000Y-29000
X050000Y-29750
X050250Y-30750
X050500Y-33750
X050500Y-34250
X050750Y-27500
X050750Y-28250
X051250Y-30750
X052250Y-27750
X052250Y-28500
X052250Y-30000
X052250Y-30750
X053250Y-26750
X053250Y-27750
X053250Y-28500
X053250Y-29250
X053250Y-30000
X053250Y-30750
X054250Y-26750
X054250Y-27750
X054250Y-28500
X054250Y-29250
X054250Y-30000
X054250Y-30750
X055250Y-26750
X055250Y-27750
X055250Y-28500
X055250Y-29250
X055250Y-30000
X055250Y-30750
T11
X051273Y-26700
X052060Y-26700
T12
X049269Y-29629
X051391Y-31751
T13
X048400Y-33550
X049400Y-33550
T14
X042220Y-28425
X044130Y-28425
T15
X042102Y-27313
X044248Y-27313
M30

